<?xml version="1.0" standalone="no"?>
<!DOCTYPE svg PUBLIC "-//W3C//DTD SVG 20010904//EN"
 "http://www.w3.org/TR/2001/REC-SVG-20010904/DTD/svg10.dtd">
<svg version="1.0" xmlns="http://www.w3.org/2000/svg"
 width="1280.000000pt" height="1280.000000pt" viewBox="0 0 1280.000000 1280.000000"
 preserveAspectRatio="xMidYMid meet">
<metadata>
Created by potrace 1.15, written by Peter Selinger 2001-2017
</metadata>
<g transform="translate(0.000000,1280.000000) scale(0.100000,-0.100000)"
fill="#000000" stroke="none">
<path d="M4285 11823 c-68 -9 -153 -36 -205 -65 -76 -43 -160 -108 -160 -124
0 -8 2 -14 4 -14 3 0 38 24 78 53 40 29 103 65 138 82 56 25 77 29 157 30 83
0 94 -2 117 -24 14 -14 26 -28 26 -32 0 -4 -24 -13 -52 -19 -259 -61 -466
-231 -484 -398 -10 -92 49 -157 140 -156 99 2 268 105 355 217 69 90 96 160
96 250 l0 77 33 6 c19 4 82 5 140 2 90 -4 117 -9 167 -32 33 -15 70 -37 83
-48 l22 -22 -77 -36 c-171 -81 -414 -266 -545 -413 -44 -51 -137 -164 -206
-252 -277 -354 -317 -396 -442 -461 -48 -25 -66 -29 -140 -29 -75 0 -91 3
-138 29 -149 83 -170 295 -46 481 70 106 192 186 315 207 93 16 149 5 199 -40
104 -92 78 -262 -61 -405 -39 -41 -56 -64 -49 -71 16 -16 131 109 165 179 35
70 46 183 24 238 -49 121 -168 164 -331 118 -181 -50 -325 -206 -364 -395 -46
-218 82 -376 303 -376 148 0 304 55 417 147 80 65 209 220 366 440 147 206
285 378 353 440 54 49 126 97 214 142 l62 31 18 -32 c28 -53 24 -150 -10 -222
-54 -116 -167 -219 -294 -266 -53 -20 -59 -20 -95 -5 -70 27 -158 13 -158 -27
0 -27 44 -40 125 -36 65 3 70 2 73 -19 5 -32 -38 -109 -107 -194 -106 -130
-151 -242 -117 -293 47 -73 164 -22 377 166 80 70 96 80 80 51 -5 -10 -14 -44
-21 -75 -10 -51 -9 -62 8 -102 24 -53 64 -77 131 -80 71 -2 150 42 255 143 49
47 86 77 82 66 -39 -104 -28 -177 31 -202 30 -12 38 -12 79 6 25 11 74 46 109
76 l63 56 -10 -35 c-13 -43 2 -87 37 -106 63 -34 161 27 345 216 102 104 131
139 117 142 -12 2 -62 -41 -160 -140 -103 -104 -157 -152 -196 -171 -41 -20
-58 -24 -68 -16 -11 10 -9 19 10 53 13 22 202 265 420 539 l397 497 -75 0 -75
0 -212 -266 c-169 -212 -213 -262 -219 -247 -20 54 -69 54 -171 3 -123 -63
-215 -137 -418 -336 -212 -208 -264 -247 -332 -247 -55 0 -71 18 -65 70 5 43
88 192 111 198 6 1 36 8 66 15 173 39 373 218 340 305 -35 92 -280 -21 -502
-231 -165 -156 -326 -288 -395 -323 -121 -61 -109 3 34 186 119 151 148 238
97 294 -14 15 -14 19 -3 23 153 54 258 120 325 205 74 93 91 188 53 291 -11
30 -22 62 -25 71 -5 13 3 18 35 24 41 7 59 19 42 29 -5 3 -30 2 -57 -3 -45 -9
-50 -7 -92 25 -83 63 -138 78 -310 80 l-154 2 -35 36 c-31 31 -50 39 -113 50
-8 2 -28 1 -45 -1z m179 -208 c-1 -101 -35 -168 -138 -270 -158 -156 -320
-204 -376 -112 -24 39 -25 58 -4 127 13 45 29 68 93 130 46 46 102 89 141 110
78 41 226 91 260 87 24 -2 25 -4 24 -72z m926 -563 c0 -45 -123 -173 -206
-215 -50 -25 -124 -49 -124 -41 0 3 21 30 48 60 77 90 236 214 274 214 4 0 8
-8 8 -18z m468 -15 c6 -47 -33 -109 -165 -267 -175 -210 -278 -302 -320 -286
-22 9 -9 48 41 125 118 181 390 471 430 458 6 -2 12 -15 14 -30z m-1308 -7 c0
-5 -21 -10 -46 -10 -27 0 -43 4 -39 10 3 6 24 10 46 10 21 0 39 -4 39 -10z"/>
<path d="M7410 11818 c-74 -11 -182 -66 -252 -129 -32 -28 -58 -55 -58 -60 0
-19 24 -7 73 36 80 70 185 119 268 123 38 3 80 1 94 -2 27 -7 34 -26 9 -26
-32 0 -161 -69 -223 -119 -241 -193 -298 -441 -113 -490 78 -21 181 28 293
140 90 89 141 184 160 295 10 61 9 79 -4 117 l-15 45 26 5 c72 14 142 -49 142
-127 -1 -101 -62 -181 -324 -420 -251 -230 -320 -301 -374 -385 -62 -94 -101
-227 -88 -296 12 -62 93 -93 163 -63 90 39 220 141 410 322 l111 106 -53 -103
c-57 -107 -85 -195 -85 -260 0 -55 43 -97 99 -97 90 0 256 113 440 299 233
236 438 513 577 776 65 123 81 174 65 204 -20 36 -73 26 -96 -20 -19 -36 -19
-70 0 -95 22 -29 19 -43 -26 -130 -180 -347 -618 -841 -860 -971 -76 -41 -122
-43 -145 -8 -15 22 -15 32 -4 68 37 124 80 184 493 686 196 240 357 439 357
444 0 4 -28 7 -62 5 l-63 -3 -276 -330 c-287 -343 -596 -664 -739 -769 -187
-138 -277 -134 -205 10 31 62 87 130 305 369 271 297 352 404 396 522 66 174
3 297 -151 295 -39 -1 -74 5 -100 17 -52 24 -97 30 -165 19z m218 -123 c18
-53 3 -145 -36 -228 -57 -121 -195 -252 -299 -283 -49 -14 -55 -14 -97 4 -53
24 -66 45 -66 110 0 71 48 159 136 251 75 79 144 126 241 167 80 33 105 29
121 -21z"/>
<path d="M9064 11405 c-12 -8 -27 -28 -34 -45 -33 -80 86 -121 136 -45 22 33
21 75 -2 92 -24 17 -74 17 -100 -2z"/>
<path d="M9214 11069 c-27 -17 -98 -83 -159 -147 -351 -368 -482 -476 -535
-442 -27 17 22 88 242 352 114 138 208 252 208 254 0 2 -34 4 -75 4 l-75 0
-126 -152 c-185 -222 -244 -318 -247 -406 -2 -37 3 -48 26 -68 37 -32 71 -30
148 7 55 27 101 69 334 305 179 180 279 275 298 279 76 19 49 -24 -198 -323
-124 -149 -225 -274 -225 -277 0 -3 33 -5 74 -5 l74 0 150 178 c82 97 179 205
213 238 127 122 243 202 275 190 24 -9 2 -39 -121 -166 -125 -128 -174 -198
-204 -288 -26 -77 -26 -107 -1 -132 49 -49 138 -8 278 125 49 47 92 85 96 85
3 0 1 -12 -4 -26 -6 -14 -10 -48 -10 -75 0 -42 5 -55 33 -85 21 -23 46 -38 75
-45 94 -21 162 19 345 199 81 80 147 150 147 154 0 26 -41 -5 -141 -107 -133
-136 -199 -190 -262 -211 -40 -14 -49 -14 -81 0 -47 20 -48 52 -2 140 54 104
69 119 135 132 120 25 276 124 332 212 34 54 37 84 8 113 -17 17 -29 20 -61
16 -95 -13 -337 -161 -411 -251 -120 -148 -359 -356 -408 -356 -46 0 -8 57
137 210 55 58 115 127 133 153 34 50 71 141 71 175 0 32 -38 72 -68 72 -44 0
-142 -53 -219 -119 -40 -33 -75 -61 -77 -61 -3 0 4 21 15 46 23 51 20 83 -11
114 -28 28 -69 25 -126 -11z m996 -20 c0 -28 -59 -108 -114 -153 -50 -41 -123
-79 -178 -94 -34 -9 -37 -9 -28 7 18 34 202 201 253 231 62 36 67 36 67 9z"/>
<path d="M9045 9854 c-210 -47 -448 -165 -1048 -523 -379 -226 -554 -325 -750
-425 -726 -370 -1229 -454 -1732 -290 -195 64 -458 214 -663 379 -101 82 -395
356 -425 397 -34 46 -226 217 -268 239 -52 26 -73 24 -102 -11 -44 -51 -52
-119 -51 -415 0 -291 14 -443 60 -675 97 -488 320 -969 624 -1350 102 -127
323 -350 440 -444 195 -156 467 -317 690 -409 707 -291 1508 -255 2187 98 770
401 1325 1161 1507 2066 53 260 75 588 57 825 -23 291 -94 449 -236 522 -63
32 -185 39 -290 16z"/>
<path d="M9770 9770 c-8 -14 -17 -125 -26 -304 -8 -155 -21 -337 -29 -406
-134 -1110 -686 -2070 -1505 -2618 -63 -42 -191 -115 -285 -162 -288 -145
-512 -215 -830 -262 -138 -20 -532 -17 -675 5 -507 79 -957 286 -1368 631
-125 106 -362 353 -466 486 -415 534 -681 1182 -786 1912 -17 117 -19 123 -14
48 8 -127 58 -408 105 -592 175 -688 491 -1271 939 -1732 264 -272 507 -452
820 -610 362 -183 706 -271 1101 -283 320 -9 581 25 859 112 325 102 657 280
940 505 134 106 400 373 514 515 170 213 347 498 466 749 240 507 388 1120
365 1516 -12 194 -61 443 -98 495 -14 18 -15 18 -27 -5z"/>
<path d="M3773 9230 c0 -25 2 -35 4 -22 2 12 2 32 0 45 -2 12 -4 2 -4 -23z"/>
<path d="M6613 5679 c-52 -15 -63 -40 -63 -152 0 -54 13 -291 30 -525 31 -458
58 -845 90 -1332 11 -168 40 -613 65 -990 25 -377 54 -827 65 -1000 12 -173
22 -319 24 -325 2 -5 7 40 11 100 5 61 9 119 10 130 1 11 3 61 4 110 2 58 6
81 10 65 4 -14 11 76 15 200 7 220 16 396 56 1045 27 432 86 1446 105 1787 20
360 20 562 0 617 -30 86 -128 175 -260 236 -81 38 -118 46 -162 34z"/>
<path d="M6515 1573 c-936 -21 -1750 -262 -1907 -563 -29 -57 -31 -158 -4
-209 26 -50 112 -137 176 -181 288 -196 869 -339 1585 -391 206 -15 733 -15
945 0 1044 73 1775 350 1774 671 0 74 -30 138 -96 203 -233 232 -838 404
-1608 457 -191 13 -520 13 -520 0 0 -6 33 -10 79 -10 174 0 586 -36 816 -71
626 -95 1048 -268 1149 -471 33 -66 34 -126 2 -193 -128 -269 -772 -477 -1659
-536 -228 -15 -804 -6 -1016 15 -697 72 -1197 231 -1390 442 -47 52 -81 124
-81 174 0 74 84 188 193 262 268 182 855 324 1544 373 125 9 237 20 248 25 20
9 14 9 -230 3z"/>
</g>
</svg>
